<svg width="100" height="100" viewBox="0 0 100 100" version="1.1" xmlns="http://www.w3.org/2000/svg" xmlns:xlink="http://www.w3.org/1999/xlink">
<title>Color</title>
<desc>Created using Figma</desc>
<g id="Canvas" transform="matrix(0.25 0 0 0.25 -107.75 -98.5)">
<clipPath id="clip-0" clip-rule="evenodd">
<path d="M 431 394L 831 394L 831 794L 431 794L 431 394Z" fill="#FFFFFF"/>
</clipPath>
<g id="Color" clip-path="url(#clip-0)">
<g id="Group">
<g id="Union">
<use xlink:href="#path0_fill" transform="translate(432 414)" fill="#FF0000"/>
<use xlink:href="#path0_fill" transform="translate(432 414)" fill="url(#paint1_linear)"/>
</g>
<g id="v3">
<use xlink:href="#path1_fill" transform="translate(438.758 414)" fill="#FF0000" fill-opacity="0.4"/>
<use xlink:href="#path1_fill" transform="translate(438.758 414)" fill="url(#paint3_linear)" fill-opacity="0.4"/>
</g>
</g>
</g>
</g>
<defs>
<linearGradient id="paint1_linear" x1="0" y1="0" x2="1" y2="0" gradientUnits="userSpaceOnUse" gradientTransform="matrix(2.35864e-14 360 -385.196 2.20436e-14 399 -2.9976e-14)">
<stop offset="0" stop-color="#000BFF"/>
<stop offset="1" stop-color="#000BFF" stop-opacity="0"/>
</linearGradient>
<linearGradient id="paint3_linear" x1="0" y1="0" x2="1" y2="0" gradientUnits="userSpaceOnUse" gradientTransform="matrix(393.915 -10.8367 11.5951 420.743 -14.0344 -57.6729)">
<stop offset="0" stop-color="#0000FF" stop-opacity="0"/>
<stop offset="1" stop-color="#0000FF"/>
</linearGradient>
<path id="path0_fill" fill-rule="evenodd" d="M 159.831 150.078C 89.4561 141.769 125.578 32.9318 167.196 43.5111C 151.369 30.439 131.93 23.5918 114.804 25.9253C 98.2366 23.8314 82.3209 28.9159 71.7305 43.5111C 52.6762 69.7709 48.1395 118.669 76.2673 145.834C 88.6937 157.835 112.124 164.497 139.484 163.137C 145.536 163.45 151.872 163.346 158.4 162.792C 157.097 173.849 155.607 184.976 153.755 195.994C 152.943 195.571 152.13 195.15 151.317 194.732C 131.557 184.558 111.485 180.549 93.0046 181.867C 37.3721 177.988 -8.74375 220.821 1.4108 289.81C 8.26408 336.371 48.5033 362.972 90.7467 359.735C 124.566 362.346 162.017 345.792 186.027 304.698C 186.762 305.486 187.491 306.268 188.214 307.043C 199.991 319.672 210.178 330.596 218.244 336.897C 235.72 350.548 256.294 356.461 276.988 354.759C 328.433 359.036 384.82 315.148 399 225.066L 385.196 225.066C 353.362 244.128 324.86 252.385 298.604 253.598C 267.081 252.147 238.698 240.947 211.401 227.113C 216.342 199.172 218.473 170.71 220.138 144.56C 234.6 136.999 248.693 126.967 261.56 114.141C 319.641 56.2437 297.91 -5.41069 242.906 0.378532C 233.423 -0.711475 222.525 0.512292 210.555 4.57407C 173.506 17.145 168.001 70.7777 161.701 132.16C 161.095 138.071 160.481 144.053 159.831 150.078ZM 221.363 124.969C 224.163 81.0023 227.377 46.5921 244.079 37.5475C 256.667 48.3209 249.373 95.8112 221.363 124.969ZM 71.8169 225.073C 94.6099 226.998 117.029 240.354 137.671 257.42C 134.147 266.369 130.054 274.946 125.264 283.019C 114.505 301.151 90.0651 316.117 65.8105 318.616C 55.61 317.491 45.9364 313.721 37.8985 306.562C 10.0846 281.792 23.0493 229.51 71.8169 225.073Z"/>
<path id="path1_fill" fill-rule="evenodd" d="M 153.392 43.5111C 127.079 21.7788 90.7849 17.2512 71.7305 43.5111C 52.6762 69.7709 48.1395 118.669 76.2673 145.834C 91.5109 160.556 123.313 167.244 158.617 160.943C 157 174.866 155.102 188.917 152.571 202.737C 147.559 200.006 142.544 197.322 137.513 194.732C 65.1611 157.48 -11.3844 202.881 1.41081 289.81C 13.5134 372.034 129.733 392.013 177.242 295.339C 193.712 312.729 207.766 328.713 218.244 336.897C 275.693 381.773 366.629 343.022 385.196 225.066C 308.331 271.092 250.893 254.123 197.597 227.113C 202.537 199.172 204.669 170.71 206.333 144.56C 220.795 136.999 234.889 126.967 247.756 114.141C 311.99 50.1099 278.606 -18.5165 210.555 4.57407C 169.866 18.38 167.224 81.712 159.791 150.444C 71.3582 155.19 109.289 32.3002 153.392 43.5111ZM 24.0942 306.562C 54.3582 333.514 107.811 312.432 125.264 283.019C 130.054 274.946 134.147 266.369 137.671 257.42C 117.003 240.333 94.5533 226.964 71.7305 225.066C 11.8455 220.086 -6.16976 279.61 24.0942 306.562ZM 206.806 137.025C 209.931 86.726 212.132 46.3485 231.005 37.1725C 262.498 21.861 255.203 105.946 206.806 137.025Z"/>
</defs>
</svg>
