<svg width="100" height="100" viewBox="0 0 100 100" version="1.1" xmlns="http://www.w3.org/2000/svg" xmlns:xlink="http://www.w3.org/1999/xlink">
<title>Dark</title>
<desc>Created using Figma</desc>
<g id="Canvas" transform="matrix(0.25 0 0 0.25 -224.5 -98.5)">
<clipPath id="clip-0" clip-rule="evenodd">
<path d="M 898 394L 1298 394L 1298 794L 898 794L 898 394Z" fill="#FFFFFF"/>
</clipPath>
<g id="Dark" clip-path="url(#clip-0)">
<g id="Group">
<g id="Union">
<use xlink:href="#path0_fill" transform="translate(899 411)" fill="#FF0000"/>
<use xlink:href="#path0_fill" transform="translate(899 411)" fill="url(#paint1_linear)"/>
</g>
<g id="v3">
<use xlink:href="#path1_fill" transform="translate(905.758 411)" fill="#1B0B0B"/>
</g>
</g>
</g>
</g>
<defs>
<linearGradient id="paint1_linear" x1="0" y1="0" x2="1" y2="0" gradientUnits="userSpaceOnUse" gradientTransform="matrix(2.35864e-14 360.433 -385.196 2.20702e-14 399 -3.00121e-14)">
<stop offset="0" stop-color="#000BFF"/>
<stop offset="1" stop-color="#000BFF" stop-opacity="0"/>
</linearGradient>
<path id="path0_fill" fill-rule="evenodd" d="M 159.831 150.258C 89.4561 141.939 125.578 32.9715 167.196 43.5634C 151.369 30.4757 131.93 23.6202 114.804 25.9565C 98.2366 23.86 82.3209 28.9507 71.7305 43.5634C 52.6762 69.8549 48.1395 118.811 76.2673 146.009C 88.6937 158.025 112.124 164.695 139.484 163.333C 145.536 163.646 151.872 163.543 158.4 162.988C 157.097 174.058 155.607 185.199 153.755 196.23C 152.943 195.806 152.13 195.385 151.317 194.966C 131.557 184.78 111.485 180.766 93.0046 182.086C 37.3721 178.202 -8.74375 221.087 1.4108 290.159C 8.26408 336.776 48.5033 363.409 90.7468 360.168C 124.566 362.782 162.017 346.208 186.027 305.065C 186.762 305.853 187.491 306.636 188.214 307.413C 199.991 320.057 210.178 330.994 218.244 337.302C 235.72 350.97 256.294 356.89 276.988 355.186C 328.433 359.468 384.82 315.527 399 225.337L 385.196 225.337C 353.362 244.422 324.86 252.688 298.604 253.903C 267.081 252.45 238.698 241.237 211.401 227.386C 216.342 199.411 218.473 170.916 220.138 144.734C 234.6 137.163 248.693 127.12 261.56 114.278C 319.641 56.3113 297.91 -5.4172 242.906 0.378987C 233.423 -0.712331 222.525 0.512909 210.555 4.57957C 173.506 17.1657 168.002 70.8629 161.701 132.319C 161.095 138.237 160.481 144.227 159.831 150.258ZM 221.363 125.119C 224.163 81.0998 227.377 46.6481 244.079 37.5927C 256.667 48.3791 249.373 95.9265 221.363 125.119ZM 71.8169 225.344C 94.6099 227.271 117.029 240.643 137.671 257.73C 134.147 266.689 130.054 275.277 125.264 283.359C 114.505 301.513 90.0651 316.498 65.8105 318.999C 55.61 317.873 45.9364 314.098 37.8985 306.931C 10.0846 282.131 23.0493 229.787 71.8169 225.344Z"/>
<path id="path1_fill" fill-rule="evenodd" d="M 153.392 43.5634C 127.079 21.805 90.7849 17.272 71.7306 43.5634C 52.6762 69.8549 48.1395 118.811 76.2673 146.009C 91.5109 160.749 123.313 167.445 158.617 161.137C 157 175.077 155.102 189.145 152.571 202.981C 147.559 200.246 142.544 197.559 137.513 194.966C 65.1611 157.669 -11.3844 203.125 1.41081 290.159C 13.5134 372.482 129.733 392.485 177.242 295.695C 193.712 313.105 207.766 329.108 218.244 337.302C 275.693 382.232 366.629 343.434 385.196 225.337C 308.331 271.418 250.893 254.429 197.597 227.386C 202.537 199.411 204.669 170.916 206.333 144.734C 220.795 137.163 234.889 127.12 247.756 114.278C 311.99 50.1702 278.606 -18.5387 210.555 4.57957C 169.866 18.4021 167.224 81.8103 159.791 150.625C 71.3583 155.377 109.289 32.3391 153.392 43.5634ZM 24.0942 306.931C 54.3582 333.916 107.811 312.808 125.264 283.359C 130.054 275.277 134.147 266.689 137.671 257.73C 117.003 240.622 94.5533 227.237 71.7306 225.337C 11.8455 220.351 -6.16976 279.947 24.0942 306.931ZM 206.806 137.19C 209.931 86.8304 212.132 46.4043 231.005 37.2172C 262.498 21.8873 255.203 106.074 206.806 137.19Z"/>
</defs>
</svg>
