<svg width="100" height="100" viewBox="0 0 100 100" version="1.1" xmlns="http://www.w3.org/2000/svg" xmlns:xlink="http://www.w3.org/1999/xlink">
<title>Light</title>
<desc>Created using Figma</desc>
<g id="Canvas" transform="matrix(0.25 0 0 0.25 -224.5 19.25)">
<clipPath id="clip-0" clip-rule="evenodd">
<path d="M 898 -77L 1298 -77L 1298 323L 898 323L 898 -77Z" fill="#FFFFFF"/>
</clipPath>
<g id="Light" clip-path="url(#clip-0)">
<g id="Union">
<use xlink:href="#path0_fill" transform="translate(906 -54)" fill="#F2F2F2"/>
</g>
<g id="Group">
<g id="v3">
<use xlink:href="#path1_fill" transform="translate(898 -55)" fill="#C4C4C4"/>
<use xlink:href="#path2_stroke" transform="translate(898 -55)" fill="#C4C4C4"/>
</g>
</g>
</g>
</g>
<defs>
<path id="path0_fill" fill-rule="evenodd" d="M 155.825 150.258C 87.2141 141.939 122.431 32.9715 163.006 43.5634C 147.575 30.4757 128.624 23.6202 111.927 25.9565C 95.7746 23.86 80.2577 28.9507 69.9328 43.5634C 51.356 69.8549 46.933 118.811 74.3558 146.009C 86.4708 158.025 109.314 164.695 135.989 163.333C 141.889 163.646 148.066 163.543 154.431 162.988C 153.16 174.058 151.707 185.199 149.901 196.23C 149.109 195.806 148.317 195.385 147.525 194.966C 128.26 184.78 108.691 180.766 90.6737 182.086C 36.4355 178.202 -8.52461 221.087 1.37545 290.159C 8.05696 336.776 47.2876 363.409 88.4724 360.168C 121.444 362.782 157.957 346.208 181.364 305.065C 182.081 305.853 182.792 306.636 183.497 307.413C 194.979 320.057 204.91 330.994 212.774 337.302C 229.812 350.97 249.871 356.89 270.046 355.186C 320.202 359.468 375.176 315.527 389 225.337L 375.542 225.337C 344.505 244.422 316.718 252.688 291.12 253.903C 260.387 252.45 232.715 241.237 206.103 227.386C 210.919 199.411 212.998 170.916 214.62 144.734C 228.72 137.163 242.46 127.12 255.005 114.278C 311.63 56.3113 290.444 -5.4172 236.818 0.378987C 227.573 -0.712331 216.948 0.512909 205.278 4.57957C 169.158 17.1657 163.791 70.8629 157.649 132.319C 157.057 138.237 156.459 144.227 155.825 150.258ZM 215.815 125.119C 218.545 81.0998 221.679 46.6481 237.962 37.5927C 250.234 48.3791 243.123 95.9265 215.815 125.119ZM 70.017 225.344C 92.2387 227.271 114.096 240.643 134.221 257.73C 130.785 266.689 126.795 275.277 122.125 283.359C 111.635 301.513 87.8078 316.498 64.1611 318.999C 54.2163 317.873 44.7851 314.098 36.9487 306.931C 9.8319 282.131 22.4716 229.787 70.017 225.344Z"/>
<path id="path1_fill" fill-rule="evenodd" d="M 157.895 43.639C 131.775 21.8428 95.7473 17.302 76.8326 43.639C 57.918 69.976 53.4145 119.017 81.3361 146.263C 96.468 161.028 128.037 167.735 163.082 161.416C 161.477 175.38 159.593 189.473 157.081 203.332C 152.105 200.593 147.127 197.902 142.133 195.304C 70.3113 157.943 -11.386 196.666 1.31539 283.851C 13.3293 366.316 134.409 393.166 181.57 296.207C 197.92 313.648 211.871 329.679 222.272 337.887C 279.3 382.895 369.569 344.03 388 225.728C 311.698 271.889 254.681 254.87 201.776 227.781C 206.681 199.757 208.797 171.212 210.449 144.985C 224.805 137.401 238.795 127.341 251.568 114.476C 315.331 50.2572 282.191 -18.5709 214.639 4.58752C 174.249 18.4341 171.626 81.9522 164.248 150.886C 76.463 155.646 114.116 32.3952 157.895 43.639ZM 29.5455 307.463C 59.5876 334.495 112.649 313.351 129.974 283.851C 134.729 275.754 138.792 267.152 142.29 258.177C 121.773 241.039 99.488 227.631 76.8326 225.728C 17.3865 220.733 -0.49668 280.432 29.5455 307.463ZM 210.918 137.428C 214.02 86.981 216.205 46.4847 234.94 37.2818C 266.201 21.9253 258.96 106.258 210.918 137.428Z"/>
<path id="path2_stroke" d="M 157.895 43.639L 157.771 44.1233L 158.216 43.2551L 157.895 43.639ZM 81.3361 146.263L 80.9869 146.62L 81.3361 146.263ZM 251.568 114.476L 251.922 114.829L 251.922 114.829L 251.568 114.476ZM 214.639 4.58752L 214.801 5.06049L 214.801 5.06049L 214.639 4.58752ZM 388 225.728L 388.494 225.805L 388.659 224.745L 387.741 225.3L 388 225.728ZM 222.272 337.887L 221.962 338.28L 221.962 338.28L 222.272 337.887ZM 234.94 37.2818L 235.16 37.7305L 235.16 37.7305L 234.94 37.2818ZM 129.974 283.851L 129.542 283.598L 129.974 283.851ZM 1.31539 283.851L 1.81017 283.779L 1.31539 283.851ZM 76.8326 225.728L 76.7907 226.226L 76.8326 225.728ZM 142.133 195.304L 142.364 194.86L 142.364 194.86L 142.133 195.304ZM 210.449 144.985L 210.215 144.543L 209.967 144.674L 209.95 144.954L 210.449 144.985ZM 164.248 150.886L 164.275 151.386L 164.699 151.363L 164.745 150.94L 164.248 150.886ZM 210.918 137.428L 210.419 137.397L 210.358 138.387L 211.19 137.847L 210.918 137.428ZM 163.082 161.416L 163.579 161.473L 163.655 160.805L 162.993 160.924L 163.082 161.416ZM 157.081 203.332L 156.84 203.771L 157.449 204.106L 157.573 203.422L 157.081 203.332ZM 201.776 227.781L 201.284 227.694L 201.22 228.058L 201.548 228.226L 201.776 227.781ZM 181.57 296.207L 181.935 295.865L 181.438 295.335L 181.121 295.989L 181.57 296.207ZM 142.29 258.177L 142.756 258.358L 142.886 258.023L 142.61 257.793L 142.29 258.177ZM 158.216 43.2551C 145.087 32.3003 129.448 25.6621 114.681 25.0894C 99.8981 24.5161 85.9934 30.0263 76.4265 43.3473L 77.2387 43.9306C 86.5865 30.9147 100.153 25.5267 114.642 26.0887C 129.148 26.6512 144.583 33.1815 157.575 44.0229L 158.216 43.2551ZM 76.4265 43.3473C 66.9013 56.6103 61.0208 75.5597 61.0208 94.6102C 61.0208 113.664 66.905 132.88 80.9869 146.62L 81.6853 145.905C 67.8456 132.4 62.0208 113.472 62.0208 94.6102C 62.0208 75.7445 67.8492 57.0047 77.2387 43.9306L 76.4265 43.3473ZM 251.922 114.829C 283.881 82.6415 291.671 49.1774 282.812 26.5829C 278.381 15.2808 269.792 6.73564 258.045 2.48669C 246.304 -1.75996 231.447 -1.70305 214.477 4.11454L 214.801 5.06049C 231.608 -0.701122 246.225 -0.725099 257.704 3.42707C 269.178 7.57694 277.554 15.9103 281.881 26.9479C 290.54 49.0326 283.017 82.0921 251.213 114.124L 251.922 114.829ZM 387.506 225.651C 378.308 284.691 351.197 323.833 319.356 342.618C 287.522 361.399 250.923 359.862 222.582 337.495L 221.962 338.28C 250.649 360.92 287.699 362.455 319.864 343.479C 352.022 324.508 379.261 285.067 388.494 225.805L 387.506 225.651ZM 129.542 283.598C 120.957 298.217 103.477 310.81 84.3885 316.376C 65.3041 321.941 44.7292 320.453 29.8799 307.092L 29.211 307.835C 44.4039 321.505 65.3805 322.961 84.6684 317.336C 103.952 311.713 121.666 298.984 130.405 284.104L 129.542 283.598ZM 29.8799 307.092C 0.230365 280.414 17.7729 221.267 76.7907 226.226L 76.8745 225.23C 17.0002 220.199 -1.22373 280.45 29.211 307.835L 29.8799 307.092ZM 1.81017 283.779C -4.51381 240.37 12.6572 209.104 40.2763 193.307C 67.9208 177.495 106.118 177.133 141.902 195.747L 142.364 194.86C 106.326 176.114 67.764 176.433 39.7798 192.439C 11.7701 208.459 -5.55677 240.147 0.820617 283.923L 1.81017 283.779ZM 210.682 145.427C 225.068 137.826 239.119 127.721 251.922 114.829L 251.213 114.124C 238.47 126.96 224.541 136.976 210.215 144.543L 210.682 145.427ZM 214.477 4.11454C 194.029 11.1246 183.216 30.6924 176.579 56.9566C 169.944 83.2259 167.439 116.374 163.75 150.833L 164.745 150.94C 168.435 116.465 170.931 83.3866 177.549 57.2016C 184.166 31.0115 194.859 11.897 214.801 5.06049L 214.477 4.11454ZM 211.417 137.458C 212.968 112.234 214.287 89.529 217.558 71.9799C 219.191 63.2123 221.298 55.776 224.168 49.9384C 227.026 44.1193 230.609 39.9661 235.16 37.7305L 234.719 36.833C 229.903 39.1989 226.187 43.5589 223.27 49.4975C 220.364 55.4178 218.218 62.9841 216.575 71.7967C 213.295 89.4081 211.97 112.174 210.419 137.397L 211.417 137.458ZM 235.16 37.7305C 238.994 35.8471 242.16 35.5294 244.696 36.372C 247.229 37.2137 249.235 39.2474 250.679 42.2826C 253.58 48.3776 254.123 58.3298 252.175 69.8237C 248.282 92.7904 234.516 121.521 210.646 137.008L 211.19 137.847C 235.362 122.164 249.237 93.1437 253.161 69.9908C 255.121 58.425 254.615 48.2253 251.582 41.8529C 250.06 38.6544 247.878 36.3756 245.011 35.423C 242.147 34.4711 238.701 34.8773 234.719 36.833L 235.16 37.7305ZM 164.22 150.387C 142.396 151.571 128.469 144.799 120.463 134.254C 112.439 123.684 110.285 109.225 112.23 94.8985C 114.173 80.5581 120.185 66.4833 128.457 56.6438C 136.711 46.8166 147.092 41.3805 157.771 44.1233L 158.02 43.1547C 146.809 40.2755 136.066 46.0294 127.691 56.0007C 119.333 65.9597 113.209 80.292 111.24 94.7639C 109.272 109.25 111.429 124.008 119.666 134.858C 127.921 145.732 142.207 152.582 164.275 151.386L 164.22 150.387ZM 80.9869 146.62C 96.2858 161.549 128.053 168.24 163.171 161.908L 162.993 160.924C 128.02 167.23 96.6502 160.507 81.6853 145.905L 80.9869 146.62ZM 202.269 227.867C 207.177 199.819 209.296 171.246 210.948 145.016L 209.95 144.954C 208.298 171.178 206.184 199.695 201.284 227.694L 202.269 227.867ZM 162.585 161.359C 160.981 175.318 159.099 189.395 156.589 203.243L 157.573 203.422C 160.087 189.55 161.974 175.442 163.579 161.473L 162.585 161.359ZM 141.902 195.747C 146.892 198.343 151.865 201.032 156.84 203.771L 157.322 202.894C 152.344 200.155 147.361 197.46 142.364 194.86L 141.902 195.747ZM 201.548 228.226C 228.022 241.78 255.6 252.84 286.084 254.722C 316.602 256.6 350.032 249.282 388.259 226.156L 387.741 225.3C 349.667 248.334 316.437 255.588 286.145 253.724C 255.819 251.865 228.436 240.87 202.004 227.335L 201.548 228.226ZM 222.582 337.495C 212.22 329.317 198.314 313.338 181.935 295.865L 181.206 296.549C 197.526 313.959 211.522 330.041 221.962 338.28L 222.582 337.495ZM 142.61 257.793C 122.071 240.636 99.6869 227.146 76.8745 225.23L 76.7907 226.226C 99.2892 228.116 121.475 241.442 141.969 258.56L 142.61 257.793ZM 141.824 257.995C 138.332 266.954 134.287 275.52 129.542 283.598L 130.405 284.104C 135.171 275.987 139.251 267.349 142.756 258.358L 141.824 257.995ZM 0.820617 283.923C 12.9135 366.93 134.668 393.777 182.02 296.426L 181.121 295.989C 134.151 392.555 13.745 365.702 1.81017 283.779L 0.820617 283.923Z"/>
</defs>
</svg>
