<svg width="100" height="100" viewBox="0 0 100 100" version="1.1" xmlns="http://www.w3.org/2000/svg" xmlns:xlink="http://www.w3.org/1999/xlink">
<title>Light2</title>
<desc>Created using Figma</desc>
<g id="Canvas" transform="matrix(0.25 0 0 0.25 -224.5 -213.25)">
<clipPath id="clip-0" clip-rule="evenodd">
<path d="M 898 853L 1298 853L 1298 1253L 898 1253L 898 853Z" fill="#FFFFFF"/>
</clipPath>
<g id="Light2" clip-path="url(#clip-0)">
<g id="wip">
<g id="Vector">
<use xlink:href="#path0_fill" transform="translate(912 879)" fill="#FF0000"/>
</g>
</g>
</g>
</g>
<defs>
<path id="path0_fill" fill-rule="evenodd" d="M 250.247 111.972C 313.162 49.1578 280.463 -18.1646 213.81 4.48716C 174.588 17.8165 171.461 78.2059 164.431 144.39C 71.3465 159.512 106.735 77.2355 150.712 88.4322C 94.1708 41.6608 50.1398 111.972 82.2814 143.063C 97.2119 157.505 128.361 164.066 162.939 157.885C 162.078 165.312 161.136 172.775 160.056 180.219C 156.985 178.404 153.873 176.672 150.712 175.042C 79.8461 138.498 -10.3277 200.803 0.96444 277.641C 11.7639 351.127 136.402 383.719 182.655 286.444C 197.805 301.147 210.965 314.386 221.364 321.168C 282.65 361.142 353.814 352.494 372 236.779C 295.731 282.52 250.442 247.65 203.776 211.382C 207.99 187.122 210.577 162.718 212.885 140.087C 225.923 132.89 238.598 123.603 250.247 111.972ZM 31.1802 300.737C 60.8224 327.177 113.177 306.496 130.271 277.641C 135.233 269.267 139.43 260.34 143.012 251.014C 122.696 235.219 100.592 222.685 77.8379 220.79C 19.1831 215.904 1.53798 274.297 31.1802 300.737ZM 214.394 125.313C 219.124 79.6093 223.942 43.6156 241.36 35.1338C 270.412 20.9867 257.358 91.8569 214.394 125.313Z"/>
</defs>
</svg>
