<svg width="100" height="100" viewBox="0 0 100 100" version="1.1" xmlns="http://www.w3.org/2000/svg" xmlns:xlink="http://www.w3.org/1999/xlink">
<title>Macaroni</title>
<desc>Created using Figma</desc>
<g id="Canvas" transform="matrix(0.25 0 0 0.25 -341.25 -98.5)">
<clipPath id="clip-0" clip-rule="evenodd">
<path d="M 1365 394L 1765 394L 1765 794L 1365 794L 1365 394Z" fill="#FFFFFF"/>
</clipPath>
<g id="Macaroni" clip-path="url(#clip-0)">
<g id="Group">
<g id="Vector 2">
<use xlink:href="#path0_stroke" transform="matrix(0.870278 -0.492561 0.492561 0.870278 1455.61 526.251)"/>
</g>
<g id="Vector 2">
<use xlink:href="#path1_stroke" transform="matrix(0.999972 0.00750903 -0.00750903 0.999972 1530.51 540.814)"/>
</g>
<g id="Vector 2">
<use xlink:href="#path2_stroke" transform="matrix(-0.999383 -0.0351317 0.0351317 -0.999383 1639.86 551.432)"/>
</g>
<g id="Vector 2">
<use xlink:href="#path3_stroke" transform="matrix(0.956508 -0.291705 0.291705 0.956508 1548.17 451.931)"/>
</g>
<g id="Vector 2">
<use xlink:href="#path4_stroke" transform="matrix(0.662563 -0.749006 -0.749006 -0.662563 1458.67 784.082)"/>
</g>
<g id="Vector 2">
<use xlink:href="#path5_stroke" transform="matrix(-0.801644 0.597802 0.597802 0.801644 1467.05 585.144)"/>
</g>
<g id="Vector 2">
<use xlink:href="#path6_stroke" transform="translate(1565 699)"/>
</g>
</g>
</g>
</g>
<defs>
<path id="path0_stroke" d="M 20.4778 5.88038C 23.7255 3.78307 24.658 -0.549867 22.5607 -3.79751C 20.4634 -7.04516 16.1304 -7.97769 12.8828 -5.88038L 20.4778 5.88038ZM 45.4858 81.7503C 49.2744 82.52 52.9696 80.0727 53.7393 76.2841C 54.5089 72.4955 52.0616 68.8003 48.273 68.0306L 45.4858 81.7503ZM 12.8828 -5.88038C 3.25466 0.337409 -2.91155 8.50228 -5.54594 17.6752C -7.90063 26.3266 -6.9319 36.5575 -3.41632 45.023C 3.95443 62.3405 21.9721 76.9734 45.4858 81.7503L 48.273 68.0306C 28.6475 64.0436 14.7949 52.0617 9.46542 39.5402C 6.63093 33.0862 6.04211 27.5915 7.91012 21.5397C 9.49842 16.0093 13.3351 10.4931 20.4778 5.88038L 12.8828 -5.88038Z"/>
<path id="path1_stroke" d="M 38.5 0C 38.5 -3.86599 35.366 -7 31.5 -7C 27.634 -7 24.5 -3.86599 24.5 0L 38.5 0ZM -6.26099 159.37C -7.98992 162.827 -6.58834 167.032 -3.1305 168.761C 0.327354 170.49 4.53207 169.088 6.26099 165.63L -6.26099 159.37ZM 24.5 0C 24.5071 17.0017 21.8087 46.7883 16.537 77.6872C 11.2441 108.743 3.50066 139.846 -6.26099 159.37L 6.26099 165.63C 16.9993 144.154 25.0059 111.325 30.338 80.0393C 35.6913 48.597 38.4929 17.6336 38.5 0L 24.5 0Z"/>
<path id="path2_stroke" d="M 49.0467 6.67698C 52.7343 5.51614 54.7827 1.58571 53.6218 -2.10188C 52.461 -5.78948 48.5306 -7.83782 44.843 -6.67698L 49.0467 6.67698ZM -1.71193 85.2093C -0.582737 88.9067 3.33 90.9887 7.0274 89.8595C 10.7248 88.7303 12.8068 84.8175 11.6776 81.1201L -1.71193 85.2093ZM 44.843 -6.67698C 29.1547 -1.73838 12.6042 5.98632 2.48326 20.7223C -7.88095 35.8124 -10.4448 56.6147 -1.71193 85.2093L 11.6776 81.1201C 3.7141 55.0447 6.8655 39.0703 14.0235 28.6483C 21.4248 17.8722 34.2035 11.3496 49.0467 6.67698L 44.843 -6.67698Z"/>
<path id="path3_stroke" d="M 62.5568 13.3951C 65.601 15.7781 70.0006 15.2421 72.3836 12.1978C 74.7666 9.15361 74.2306 4.75399 71.1863 2.37101L 62.5568 13.3951ZM -6.68004 50.3407C -7.8355 54.03 -5.78143 57.9575 -2.09215 59.1129C 1.59714 60.2684 5.52458 58.2143 6.68004 54.525L -6.68004 50.3407ZM 71.1863 2.37101C 58.0717 -7.89497 42.3022 -10.3796 27.5454 -1.8213C 13.452 6.35231 1.61266 23.8629 -6.68004 50.3407L 6.68004 54.525C 14.5268 29.4711 24.8821 15.9074 34.5691 10.2893C 43.5927 5.05601 53.1892 6.06228 62.5568 13.3951L 71.1863 2.37101Z"/>
<path id="path4_stroke" d="M 69.6592 7.05509C 73.5197 7.26009 76.8155 4.29668 77.0205 0.436125C 77.2255 -3.42443 74.2621 -6.72021 70.4015 -6.92521L 69.6592 7.05509ZM -3.89751 95.1175C -2.95299 98.8663 0.851733 101.14 4.60057 100.195C 8.34941 99.2506 10.6228 95.4459 9.67823 91.697L -3.89751 95.1175ZM 70.4015 -6.92521C 33.3764 -8.89128 -20.6148 28.7663 -3.89751 95.1175L 9.67823 91.697C -4.34375 36.0435 40.3828 5.50049 69.6592 7.05509L 70.4015 -6.92521Z"/>
<path id="path5_stroke" d="M 116.395 29.6487C 118.604 32.8216 122.966 33.6032 126.139 31.3944C 129.312 29.1856 130.094 24.8229 127.885 21.65L 116.395 29.6487ZM -6.87646 79.2226C -7.59956 83.0204 -5.10705 86.6852 -1.30929 87.4083C 2.48848 88.1314 6.15337 85.6389 6.87646 81.8412L -6.87646 79.2226ZM 127.885 21.65C 109.288 -5.06468 79.2695 -13.0397 51.9152 -2.51229C 24.7728 7.93364 1.34618 36.0367 -6.87646 79.2226L 6.87646 81.8412C 14.4145 42.251 35.3235 18.8742 56.9437 10.5535C 78.3521 2.31435 101.523 8.28605 116.395 29.6487L 127.885 21.65Z"/>
<path id="path6_stroke" d="M 6.04572 -3.52835C 4.09707 -6.86731 -0.189384 -7.99438 -3.52835 -6.04572C -6.86731 -4.09707 -7.99438 0.189384 -6.04572 3.52835L 6.04572 -3.52835ZM 160.582 6.81391C 162.915 3.73129 162.307 -0.659019 159.224 -2.99212C 156.142 -5.32523 151.752 -4.71763 149.418 -1.63501L 160.582 6.81391ZM -6.04572 3.52835C 11.3207 33.2852 39.1457 52.4861 70.0605 54.7716C 101.142 57.0693 133.821 42.1709 160.582 6.81391L 149.418 -1.63501C 124.898 30.7632 96.4862 42.6869 71.0927 40.8097C 45.5325 38.9201 21.498 22.9487 6.04572 -3.52835L -6.04572 3.52835Z"/>
</defs>
</svg>
