<svg width="100" height="100" viewBox="0 0 100 100" version="1.1" xmlns="http://www.w3.org/2000/svg" xmlns:xlink="http://www.w3.org/1999/xlink">
<title>MacaroniSmall</title>
<desc>Created using Figma</desc>
<g id="Canvas" transform="matrix(0.25 0 0 0.25 -458 -98.5)">
<clipPath id="clip-0" clip-rule="evenodd">
<path d="M 1832 394L 2232 394L 2232 794L 1832 794L 1832 394Z" fill="#FFFFFF"/>
</clipPath>
<g id="MacaroniSmall" clip-path="url(#clip-0)">
<g id="macaroni elbows">
<g id="Vector 2">
<use xlink:href="#path0_stroke" transform="matrix(0.870278 -0.492561 0.492561 0.870278 1922.61 526.251)" fill="#C4C4C4"/>
</g>
<g id="Vector 2">
<use xlink:href="#path1_stroke" transform="matrix(0.999972 0.00750903 -0.00750903 0.999972 2001.91 540.847)" fill="#C4C4C4"/>
</g>
<g id="Vector 2">
<use xlink:href="#path2_stroke" transform="matrix(-0.999383 -0.0351317 0.0351317 -0.999383 2104.32 548.763)" fill="#C4C4C4"/>
</g>
<g id="Vector 2">
<use xlink:href="#path3_stroke" transform="matrix(0.956508 -0.291705 0.291705 0.956508 2015.17 451.931)" fill="#C4C4C4"/>
</g>
<g id="Vector 2">
<use xlink:href="#path4_stroke" transform="matrix(0.662563 -0.749006 -0.749006 -0.662563 1925.67 784.082)" fill="#C4C4C4"/>
</g>
<g id="Vector 2">
<use xlink:href="#path5_stroke" transform="matrix(-0.801644 0.597802 0.597802 0.801644 1932.52 587.886)" fill="#C4C4C4"/>
</g>
<g id="elbow">
<use xlink:href="#path6_stroke" transform="translate(2040.5 701.589)" fill="#C4C4C4"/>
</g>
</g>
</g>
</g>
<defs>
<path id="path0_stroke" d="M 23.4616 10.5007C 29.261 6.75549 30.9262 -0.981905 27.181 -6.78127C 23.4358 -12.5806 15.6984 -14.2459 9.89904 -10.5007L 23.4616 10.5007ZM 34.6584 84.5541C 41.2118 86.7246 48.2841 83.1715 50.4546 76.6181C 52.6251 70.0646 49.0721 62.9924 42.5186 60.8219L 34.6584 84.5541ZM 9.89904 -10.5007C -10.6715 2.78366 -16.4586 23.8772 -9.96568 43.2592C -3.79564 61.6773 12.8785 77.3404 34.6584 84.5541L 42.5186 60.8219C 26.9517 55.666 17.0152 45.0961 13.7395 35.318C 10.7868 26.5039 12.719 17.4381 23.4616 10.5007L 9.89904 -10.5007Z"/>
<path id="path1_stroke" d="M 39.5947 0C 39.5947 -6.90356 33.9983 -12.5 27.0947 -12.5C 20.1912 -12.5 14.5947 -6.90356 14.5947 0L 39.5947 0ZM -11.591 147.978C -14.1755 154.379 -11.0811 161.664 -4.67954 164.248C 1.72201 166.833 9.00659 163.738 11.591 157.337L -11.591 147.978ZM 14.5947 0C 14.5947 31.0902 5.27767 106.195 -11.591 147.978L 11.591 157.337C 30.0551 111.602 39.5947 33.0411 39.5947 0L 14.5947 0Z"/>
<path id="path2_stroke" d="M -7.31272 79.4411C -5.31111 86.0481 1.66757 89.7815 8.27458 87.7799C 14.8816 85.7783 18.615 78.7996 16.6134 72.1926L -7.31272 79.4411ZM 41.3019 11.6759C 47.7504 9.21076 50.9794 1.98489 48.5143 -4.46354C 46.0492 -10.912 38.8233 -14.1411 32.3749 -11.6759L 41.3019 11.6759ZM 32.3749 -11.6759C 18.4048 -6.33534 3.60469 2.235 -5.10442 17.7573C -13.9599 33.5405 -15.0653 53.8511 -7.31272 79.4411L 16.6134 72.1926C 10.0673 50.5849 12.2754 37.873 16.6983 29.9901C 21.2675 21.8463 29.7108 16.107 41.3019 11.6759L 32.3749 -11.6759Z"/>
<path id="path3_stroke" d="M 59.1666 17.726C 64.6027 21.9813 72.4592 21.0241 76.7145 15.588C 80.9698 10.1519 80.0126 2.29543 74.5765 -1.95989L 59.1666 17.726ZM -11.9286 48.6969C -13.992 55.2849 -10.324 62.2982 -3.73598 64.3615C 2.85203 66.4248 9.86532 62.7569 11.9286 56.1689L -11.9286 48.6969ZM 74.5765 -1.95989C 59.9898 -13.3782 41.7952 -16.4437 24.7861 -6.57905C 8.96161 2.59851 -3.46074 21.6597 -11.9286 48.6969L 11.9286 56.1689C 19.6002 31.6744 29.3725 19.6612 37.3284 15.0471C 44.0997 11.12 51.2711 11.5455 59.1666 17.726L 74.5765 -1.95989Z"/>
<path id="path4_stroke" d="M 69.3675 12.5474C 76.2614 12.9134 82.1467 7.62162 82.5128 0.727769C 82.8788 -6.16608 77.587 -12.0514 70.6932 -12.4175L 69.3675 12.5474ZM -9.23084 96.4612C -7.54419 103.156 -0.750042 107.215 5.94431 105.528C 12.6387 103.842 16.6982 97.0476 15.0116 90.3533L -9.23084 96.4612ZM 70.6932 -12.4175C 30.6238 -14.5452 -27.007 25.9073 -9.23084 96.4612L 15.0116 90.3533C 2.04845 38.9025 43.1353 11.1544 69.3675 12.5474L 70.6932 -12.4175Z"/>
<path id="path5_stroke" d="M 109.017 31.5067C 112.961 37.1726 120.752 38.5682 126.418 34.624C 132.084 30.6797 133.479 22.8892 129.535 17.2233L 109.017 31.5067ZM -11.9248 63.1322C -13.9949 69.718 -10.334 76.7351 -3.74815 78.8051C 2.83774 80.8752 9.85477 77.2144 11.9248 70.6285L -11.9248 63.1322ZM 129.535 17.2233C 110.644 -9.91317 80.3646 -18.0843 52.1845 -8.84624C 24.4479 0.246425 -0.128028 25.6004 -11.9248 63.1322L 11.9248 70.6285C 21.7693 39.308 41.2645 21.0426 59.9723 14.9098C 78.2364 8.92242 96.7742 13.9197 109.017 31.5067L 129.535 17.2233Z"/>
<path id="path6_stroke" d="M 156.467 7.54368C 160.633 2.039 159.548 -5.80083 154.044 -9.96709C 148.539 -14.1334 140.699 -13.0484 136.533 -7.54368L 156.467 7.54368ZM 9.85217 2.28451C 5.60336 -3.15669 -2.25195 -4.12332 -7.69316 0.125496C -13.1344 4.37431 -14.101 12.2296 -9.85217 17.6708L 9.85217 2.28451ZM -9.85217 17.6708C 9.90841 42.977 38.2475 58.3353 69.0125 57.9017C 99.9283 57.4658 131.043 41.1352 156.467 7.54368L 136.533 -7.54368C 114.744 21.2453 90.3301 32.5987 68.6601 32.9041C 46.8393 33.2117 25.535 22.3686 9.85217 2.28451L -9.85217 17.6708Z"/>
</defs>
</svg>
