<svg width="94" height="94" viewBox="0 0 94 94" fill="none" xmlns="http://www.w3.org/2000/svg">
<g clip-path="url(#clip0)">
<rect width="94" height="94" fill="white"/>
<path d="M2.40207 11.0741L7.7095 9.66301L44.99 152.522L39.6826 153.933L2.40207 11.0741Z" fill="#494340"/>
<path d="M67.8646 11.8106C56.0016 9.4049 43.8019 6.8669 12.9646 19.4492C12.9646 19.4492 11.8223 17.577 10.0146 18.2213C7.63609 19.0692 3.82376 20.1469 3.82376 20.1469L2.52599 15.1739C5.14548 14.4536 6.33832 14.1494 8.79424 13.5449C10.6305 13.0929 10.7021 10.7793 10.7021 10.7793C40.1428 2.79738 58.2988 5.38365 67.8646 11.8106Z" fill="#494340"/>
<rect width="27.95" height="5.58183" transform="matrix(0.978215 -0.207593 0.208231 0.97808 39.1395 18.3083)" fill="#56CCF2"/>
<rect width="22.36" height="5.58183" transform="matrix(0.978215 -0.207593 0.208231 0.97808 11.7984 24.1105)" fill="#2F80ED"/>
<rect width="5.59" height="5.58183" transform="matrix(0.978215 -0.207593 0.208231 0.97808 71.9489 11.3456)" fill="#9B51E0"/>
<rect width="11.1804" height="5.58161" transform="matrix(-0.990299 0.138954 0.139392 0.990237 75.4991 34.2962)" fill="#2F80ED"/>
<rect width="11.1804" height="5.58162" transform="matrix(-0.990299 0.138955 0.139392 0.990237 53.3551 37.4034)" fill="#BDBDBD"/>
<rect width="5.59022" height="5.58162" transform="matrix(-0.990299 0.138955 0.139392 0.990237 36.7493 39.7353)" fill="#9B51E0"/>
<rect width="5.5902" height="5.58162" transform="matrix(-0.990299 0.138955 0.139391 0.990237 58.8911 36.6266)" fill="#333333"/>
<rect width="11.1806" height="5.58153" transform="matrix(0.994539 -0.104363 0.104694 0.994505 42.3938 48.2658)" fill="#2F80ED"/>
<rect width="11.1806" height="5.58154" transform="matrix(0.994539 -0.104363 0.104694 0.994504 64.6328 45.9321)" fill="#BDBDBD"/>
<rect width="5.5903" height="5.58154" transform="matrix(0.994539 -0.104363 0.104694 0.994505 81.3105 44.1839)" fill="#9B51E0"/>
<rect width="5.59028" height="5.58154" transform="matrix(0.994539 -0.104363 0.104694 0.994505 59.0731 46.5155)" fill="#333333"/>
<rect width="11.1807" height="5.5815" transform="matrix(0.997572 -0.0696456 0.0698676 0.997556 43.3255 57.0218)" fill="#56CCF2"/>
<rect width="5.59036" height="5.58149" transform="matrix(0.997572 -0.0696452 0.0698679 0.997556 54.4791 56.2431)" fill="#9B51E0"/>
<rect width="11.1807" height="5.58151" transform="matrix(0.997572 -0.0696455 0.0698676 0.997556 60.0558 55.8537)" fill="#BDBDBD"/>
<rect width="5.59037" height="5.58149" transform="matrix(0.997572 -0.0696451 0.069868 0.997556 71.2094 55.0751)" fill="#9B51E0"/>
<rect width="5.59035" height="5.58149" transform="matrix(0.997572 -0.0696454 0.0698677 0.997556 76.7862 54.6857)" fill="#333333"/>
<rect width="11.1802" height="5.58171" transform="matrix(0.984855 -0.173378 0.173918 0.98476 23.2933 31.7783)" fill="#56CCF2"/>
<rect width="5.59013" height="5.58171" transform="matrix(0.984855 -0.173378 0.173918 0.98476 34.3042 29.8398)" fill="#9B51E0"/>
<rect width="11.1802" height="5.58171" transform="matrix(0.984855 -0.173378 0.173918 0.98476 39.8097 28.8707)" fill="#BDBDBD"/>
<rect width="5.59013" height="5.58171" transform="matrix(0.984855 -0.173378 0.173919 0.98476 50.8206 26.9322)" fill="#9B51E0"/>
<rect width="5.59011" height="5.58171" transform="matrix(0.984855 -0.173379 0.173918 0.98476 56.3261 25.963)" fill="#333333"/>
</g>
<defs>
<clipPath id="clip0">
<rect width="94" height="94" fill="white"/>
</clipPath>
</defs>
</svg>
